# xmcd
#
# Track frame offsets:
#	150
#	19178
#	37125
#	56785
#	74288
#	96526
#	117006
#	129421
#	143948
#	158670
#	173177
#	188097
#	203409
#	219822
#	235114
#
# Disc length: 3267 seconds
#
# Revision: 0
# Processed by: cddbd v1.5.2PL0 Copyright (c) Steve Scherf et al.
# Submitted via: EasyCDDAExtractor 16.0.6.1
#
DISCID=d00cc10f
DTITLE=V.A  - Ti amo The Ultimate treasures Cd2
DYEAR=2012
DGENRE=Acoustic
TTITLE0=Perdere L' Amore
TTITLE1=Io Domani
TTITLE2=Vola
TTITLE3=Stori Di Tutti I Giorni
TTITLE4=Sei Belissima
TTITLE5=Vai Valentina
TTITLE6=Ne Suno Mi Puo Giudicare
TTITLE7=Luqlio
TTITLE8=Tu Sei Quello
TTITLE9=Teresa
TTITLE10=Lisa Dagli Occhi Blu
TTITLE11=Caldo Caldo
TTITLE12=Serenata
TTITLE13=Per Una Bambola
TTITLE14=Nostalgico Slow
EXTD=
EXTT0=
EXTT1=
EXTT2=
EXTT3=
EXTT4=
EXTT5=
EXTT6=
EXTT7=
EXTT8=
EXTT9=
EXTT10=
EXTT11=
EXTT12=
EXTT13=
EXTT14=
PLAYORDER=
